<svg xmlns="http://www.w3.org/2000/svg" version="1.1" xmlns:xlink="http://www.w3.org/1999/xlink" xmlns:svgjs="http://svgjs.dev/svgjs" width="2000" height="1217" viewBox="0 0 2000 1217"><g transform="matrix(1,0,0,1,-1.2121212121212466,0.609593847567794)"><svg viewBox="0 0 396 241" data-background-color="#ffffff" preserveAspectRatio="xMidYMid meet" height="1217" width="2000" xmlns="http://www.w3.org/2000/svg" xmlns:xlink="http://www.w3.org/1999/xlink"><g id="tight-bounds" transform="matrix(1,0,0,1,0.2400000000000091,-0.12071661237784781)"><svg viewBox="0 0 395.52 241.2414332247557" height="241.2414332247557" width="395.52"><g><svg viewBox="0 0 395.52 241.2414332247557" height="241.2414332247557" width="395.52"><g><svg viewBox="0 0 395.52 241.2414332247557" height="241.2414332247557" width="395.52"><g id="textblocktransform"><svg viewBox="0 0 395.52 241.2414332247557" height="241.2414332247557" width="395.52" id="textblock"><g><svg viewBox="0 0 395.52 241.2414332247557" height="241.2414332247557" width="395.52"><g transform="matrix(1,0,0,1,0,0)"><svg width="395.52" viewBox="2.34 -36.06 59.959999999999994 36.57" height="241.2414332247557" data-palette-color="#050201"><path d="M23.51 0L10.74 0 10.74-3.08 14.72-3.76 14.72-31.91 6.67-31.91 5.96-26.98 2.34-26.98 2.34-35.55 31.88-35.55 31.88-26.98 28.32-26.98 27.59-31.91 19.53-31.91 19.53-3.76 23.51-3.08 23.51 0ZM51.68 0.51L51.68 0.51Q46.34 0.51 42.76-1.83 39.18-4.17 37.39-8.25 35.59-12.33 35.59-17.5L35.59-17.5 35.59-18.02Q35.59-23.24 37.47-27.31 39.35-31.37 42.87-33.72 46.38-36.06 51.27-36.06L51.27-36.06Q54.71-36.06 57.57-34.99 60.42-33.91 62.3-32.25L62.3-32.25 62.3-24.58 58.47-24.58 57.96-30.2Q57.18-30.81 56.16-31.23 55.15-31.64 53.92-31.86 52.68-32.08 51.24-32.08L51.24-32.08Q47.75-32.08 45.33-30.29 42.92-28.49 41.67-25.34 40.43-22.19 40.43-18.07L40.43-18.07 40.43-17.5Q40.43-13.04 41.76-9.88 43.09-6.71 45.64-5.05 48.19-3.39 51.85-3.39L51.85-3.39Q53.56-3.39 55.2-3.81 56.83-4.22 57.91-4.88L57.91-4.88 58.44-9.84 62.2-9.84 62.2-2.12Q60.2-0.88 57.42-0.18 54.64 0.51 51.68 0.51Z" opacity="1" transform="matrix(1,0,0,1,0,0)" fill="#000000" class="wordmark-text-0" data-fill-palette-color="primary" id="text-0"></path></svg></g></svg></g></svg></g></svg></g></svg></g><defs></defs></svg><rect width="395.52" height="241.2414332247557" fill="none" stroke="none" visibility="hidden"></rect></g></svg></g></svg>